<svg width="19" height="19" viewBox="0 0 19 19" fill="none" xmlns="http://www.w3.org/2000/svg">
<path d="M1.89997 3.04C1.79927 3.03858 1.69928 3.05718 1.60582 3.09474C1.51237 3.13229 1.42731 3.18805 1.35559 3.25876C1.28386 3.32947 1.22691 3.41374 1.18804 3.50665C1.14917 3.59957 1.12915 3.69928 1.12915 3.8C1.12915 3.90072 1.14917 4.00043 1.18804 4.09335C1.22691 4.18627 1.28386 4.27053 1.35559 4.34124C1.42731 4.41196 1.51237 4.46771 1.60582 4.50526C1.69928 4.54282 1.79927 4.56142 1.89997 4.56H17.1C17.2007 4.56142 17.3007 4.54282 17.3941 4.50526C17.4876 4.46771 17.5726 4.41196 17.6444 4.34124C17.7161 4.27053 17.773 4.18627 17.8119 4.09335C17.8508 4.00043 17.8708 3.90072 17.8708 3.8C17.8708 3.69928 17.8508 3.59957 17.8119 3.50665C17.773 3.41374 17.7161 3.32947 17.6444 3.25876C17.5726 3.18805 17.4876 3.13229 17.3941 3.09474C17.3007 3.05718 17.2007 3.03858 17.1 3.04H1.89997ZM1.89997 8.74C1.79927 8.73858 1.69928 8.75718 1.60582 8.79474C1.51237 8.83229 1.42731 8.88805 1.35559 8.95876C1.28386 9.02947 1.22691 9.11374 1.18804 9.20665C1.14917 9.29957 1.12915 9.39928 1.12915 9.5C1.12915 9.60072 1.14917 9.70044 1.18804 9.79335C1.22691 9.88627 1.28386 9.97053 1.35559 10.0412C1.42731 10.112 1.51237 10.1677 1.60582 10.2053C1.69928 10.2428 1.79927 10.2614 1.89997 10.26H17.1C17.2007 10.2614 17.3007 10.2428 17.3941 10.2053C17.4876 10.1677 17.5726 10.112 17.6444 10.0412C17.7161 9.97053 17.773 9.88627 17.8119 9.79335C17.8508 9.70044 17.8708 9.60072 17.8708 9.5C17.8708 9.39928 17.8508 9.29957 17.8119 9.20665C17.773 9.11374 17.7161 9.02947 17.6444 8.95876C17.5726 8.88805 17.4876 8.83229 17.3941 8.79474C17.3007 8.75718 17.2007 8.73858 17.1 8.74H1.89997ZM1.89997 14.44C1.79927 14.4386 1.69928 14.4572 1.60582 14.4947C1.51237 14.5323 1.42731 14.588 1.35559 14.6588C1.28386 14.7295 1.22691 14.8137 1.18804 14.9067C1.14917 14.9996 1.12915 15.0993 1.12915 15.2C1.12915 15.3007 1.14917 15.4004 1.18804 15.4934C1.22691 15.5863 1.28386 15.6705 1.35559 15.7412C1.42731 15.812 1.51237 15.8677 1.60582 15.9053C1.69928 15.9428 1.79927 15.9614 1.89997 15.96H17.1C17.2007 15.9614 17.3007 15.9428 17.3941 15.9053C17.4876 15.8677 17.5726 15.812 17.6444 15.7412C17.7161 15.6705 17.773 15.5863 17.8119 15.4934C17.8508 15.4004 17.8708 15.3007 17.8708 15.2C17.8708 15.0993 17.8508 14.9996 17.8119 14.9067C17.773 14.8137 17.7161 14.7295 17.6444 14.6588C17.5726 14.588 17.4876 14.5323 17.3941 14.4947C17.3007 14.4572 17.2007 14.4386 17.1 14.44H1.89997Z" fill="#57626B"/>
</svg>
